<svg width="29" height="12" viewBox="0 0 29 12" fill="none" xmlns="http://www.w3.org/2000/svg">
<g clip-path="url(#clip0_20_389)">
<path d="M20.5564 3.23843C21.3536 3.23843 21.9697 3.46426 22.4409 3.9159C22.9119 4.36749 23.1293 4.96967 23.1293 5.72237V9.33532H22.1147V8.50743H22.0784C21.6436 9.1849 21.0275 9.52361 20.3027 9.52361C19.6867 9.52361 19.1431 9.33537 18.7082 8.95908C18.3096 8.58273 18.0559 8.05585 18.0559 7.49132C18.0559 6.88914 18.2734 6.39985 18.7082 6.02349C19.1431 5.64714 19.7592 5.49661 20.4839 5.49661C21.1362 5.49661 21.6436 5.60955 22.0422 5.87296V5.60955C22.0422 5.25826 21.9159 4.90702 21.6634 4.67814L21.6073 4.63102C21.3174 4.36755 20.955 4.21702 20.5564 4.21702C19.9404 4.21702 19.4693 4.48049 19.1431 5.00737L18.2009 4.40508C18.7807 3.61473 19.5417 3.23843 20.5564 3.23843ZM15.4468 0.679258C16.097 0.679258 16.715 0.914258 17.209 1.35249L17.295 1.43191C17.8023 1.88355 18.0559 2.56102 18.0559 3.27608C18.0559 3.99114 17.8023 4.63096 17.295 5.1202C16.7876 5.60949 16.1715 5.8729 15.4468 5.8729L13.7073 5.83526V9.33537H12.6201V0.679199L15.4468 0.679258ZM20.7013 6.39985C20.2665 6.39985 19.9041 6.51273 19.6142 6.73855C19.3243 6.92673 19.1793 7.19014 19.1793 7.52885C19.1793 7.82996 19.3243 8.09337 19.5417 8.24396C19.7954 8.43214 20.0853 8.54502 20.3752 8.54502C20.7811 8.54502 21.187 8.38108 21.5044 8.08385L21.5711 8.01814C21.9335 7.67943 22.1147 7.26543 22.1147 6.81379C21.7885 6.55037 21.3174 6.39979 20.7014 6.39979L20.7013 6.39985ZM15.5193 1.73302H13.7073V4.7439H15.5193C15.9178 4.7439 16.3165 4.59338 16.5702 4.29232C17.15 3.72779 17.15 2.7869 16.6064 2.22232L16.5702 2.18467C16.2802 1.88361 15.9178 1.69543 15.5192 1.73308L15.5193 1.73302ZM29 3.42661L25.4124 11.9698H24.3252L25.666 8.99667L23.3105 3.46426H24.4702L26.1734 7.71702H26.2096L27.8766 3.46426H29V3.42661Z" fill="#5F6368"/>
<path d="M9.39495 5.08252C9.39495 4.74382 9.3587 4.40511 9.32245 4.06641H4.79272V5.98582H7.36563C7.25693 6.58794 6.9308 7.15246 6.42347 7.49123V8.73317H7.98171C8.88767 7.86758 9.395 6.58794 9.395 5.08258L9.39495 5.08252Z" fill="#4285F4"/>
<path d="M4.7925 9.93764C6.09704 9.93764 7.18421 9.486 7.98148 8.73329L6.42324 7.49135C5.98835 7.79241 5.44477 7.98059 4.7925 7.98059C3.56034 7.98059 2.47318 7.115 2.11079 5.91064H0.516357V7.19023C1.34982 8.88382 2.98056 9.93764 4.7925 9.93764Z" fill="#34A853"/>
<path d="M2.11087 5.91091C1.89348 5.30874 1.89348 4.63133 2.11087 3.9915V2.71191H0.516435C-0.172145 4.10444 -0.172145 5.76039 0.516435 7.1905L2.11087 5.91091Z" fill="#FBBC04"/>
<path d="M4.79268 1.95908C5.4812 1.95908 6.13348 2.22255 6.64086 2.71178L8.01791 1.28167C7.14814 0.453667 5.98853 -0.0355682 4.82888 0.00202003C3.01694 0.00202003 1.35001 1.05584 0.552734 2.74943L2.14722 4.02902C2.47336 2.82467 3.56052 1.95908 4.79268 1.95908Z" fill="#EA4335"/>
</g>
<defs>
<clipPath id="clip0_20_389">
<rect width="29" height="12" fill="white"/>
</clipPath>
</defs>
</svg>
