<svg width="66" height="65" viewBox="0 0 66 65" fill="none" xmlns="http://www.w3.org/2000/svg">
<path d="M29.7633 3.74853C30.7535 3.2464 31.8674 2.98291 33 2.98291C34.1326 2.98291 35.2465 3.2464 36.2367 3.74853L61.2867 16.4537C61.806 16.7174 62.2387 17.1031 62.5399 17.5708C62.8412 18.0386 63 18.5714 63 19.114V44.1803C62.9997 45.2659 62.6816 46.3317 62.0785 47.2672C61.4754 48.2027 60.6093 48.9739 59.57 49.501L36.2367 61.3417C35.2465 61.8438 34.1326 62.1073 33 62.1073C31.8674 62.1073 30.7535 61.8438 29.7633 61.3417L6.43 49.501C5.39118 48.9742 4.52544 48.2034 3.92238 47.2685C3.31932 46.3336 3.00088 45.2684 3 44.1833V19.114C2.99998 18.5714 3.15881 18.0386 3.46005 17.5708C3.76129 17.1031 4.19399 16.7174 4.71333 16.4537L29.7633 3.74853Z" stroke="#754E29" stroke-width="4.16667" stroke-linecap="round" stroke-linejoin="round"/>
<path d="M3 17.3252L33 32.5446M33 32.5446L63 17.3252M33 32.5446V62.9833" stroke="#754E29" stroke-width="4.16667" stroke-linejoin="round"/>
<path d="M18 24.9342L48 9.71484M13 33.5423L23 38.6316" stroke="#754E29" stroke-width="4.16667" stroke-linecap="round" stroke-linejoin="round"/>
</svg>
